<svg width="60" height="61" viewBox="0 0 60 61" fill="none" xmlns="http://www.w3.org/2000/svg">
  <g clip-path="url(#clip0_4102_9328)">
    <path d="M41.9922 12.6357C40.4009 12.6357 38.8748 13.2679 37.7495 14.3931C36.6243 15.5183 35.9922 17.0444 35.9922 18.6357C35.9922 20.227 36.6243 21.7532 37.7495 22.8784C38.8748 24.0036 40.4009 24.6357 41.9922 24.6357C43.5835 24.6357 45.1096 24.0036 46.2348 22.8784C47.36 21.7532 47.9922 20.227 47.9922 18.6357C47.9922 17.0444 47.36 15.5183 46.2348 14.3931C45.1096 13.2679 43.5835 12.6357 41.9922 12.6357Z" fill="#EE7B31"/>
    <path fill-rule="evenodd" clip-rule="evenodd" d="M-0.0078125 6.63574C-0.0078125 5.04444 0.624328 3.51832 1.74955 2.3931C2.87476 1.26788 4.40089 0.635742 5.99219 0.635742L53.9922 0.635742C55.5835 0.635742 57.1096 1.26788 58.2348 2.3931C59.36 3.51832 59.9922 5.04444 59.9922 6.63574V54.6357C59.9922 55.6266 59.7476 56.6021 59.2802 57.4757C58.7667 58.4313 58.0038 59.2298 57.0727 59.7862C56.1415 60.3426 55.0769 60.6362 53.9922 60.6357H5.99219C4.40089 60.6357 2.87476 60.0036 1.74955 58.8784C0.624328 57.7532 -0.0078125 56.227 -0.0078125 54.6357L-0.0078125 6.63574ZM19.3922 13.2037L17.9922 11.8037L3.99219 25.8037V6.63574C3.99219 6.10531 4.2029 5.5966 4.57797 5.22153C4.95305 4.84646 5.46175 4.63574 5.99219 4.63574H53.9922C54.5226 4.63574 55.0313 4.84646 55.4064 5.22153C55.7815 5.5966 55.9922 6.10531 55.9922 6.63574V40.6357H46.8202L19.4082 13.2197L19.3922 13.2037Z" fill="url(#paint0_linear_4102_9328)"/>
  </g>
  <defs>
    <linearGradient id="paint0_linear_4102_9328" x1="-3.13825" y1="0.635743" x2="72.614" y2="12.2211" gradientUnits="userSpaceOnUse">
      <stop stop-color="#FF2E00"/>
      <stop offset="1" stop-color="#FFBA08"/>
    </linearGradient>
    <clipPath id="clip0_4102_9328">
      <rect width="60" height="60" fill="white" transform="translate(0 0.635254)"/>
    </clipPath>
  </defs>
</svg>