<svg width="154" height="34" viewBox="0 0 154 34" fill="none" xmlns="http://www.w3.org/2000/svg">
  <path d="M119.394 8.7211C121.349 5.25566 124.302 3.66325 128.159 3.87806C131.898 4.08614 134.097 5.75506 135.606 9.23151C135.986 9.11982 136.012 8.73335 136.17 8.46896C139.608 2.69996 148.668 2.17579 152.39 7.54148C153.443 9.05862 153.966 10.7731 153.976 12.5944C154.011 19.1734 153.983 25.7524 154.001 32.3314C154.003 32.8966 153.904 33.1267 153.27 33.0863C152.269 33.0226 151.258 33.0214 150.256 33.0863C149.469 33.1371 149.2 32.9532 149.206 32.0829C149.252 26.205 149.226 20.3261 149.233 14.4476C149.234 13.681 149.153 12.9268 148.953 12.193C148.236 9.57362 146.357 8.18499 143.497 8.13236C140.439 8.07636 138.019 9.74253 137.178 12.5002C136.902 13.4063 136.804 14.3383 136.806 15.2885C136.815 20.9231 136.798 26.5581 136.827 32.1928C136.831 32.8874 136.683 33.1426 135.949 33.0899C134.979 33.0205 133.996 33.0168 133.026 33.0881C132.254 33.145 132.019 32.9626 132.025 32.1288C132.069 26.1591 132.044 20.189 132.054 14.2193C132.055 13.4531 131.997 12.6994 131.779 11.9668C130.697 8.33004 125.95 6.87746 122.606 9.1645C120.486 10.6143 119.651 12.7303 119.639 15.2012C119.612 20.8662 119.616 26.5318 119.647 32.1967C119.651 32.9085 119.478 33.1306 118.757 33.0878C117.664 33.0226 116.564 33.0483 115.468 33.0814C115.002 33.0955 114.824 32.9841 114.85 32.4868C114.892 31.697 114.861 30.9036 114.861 30.1117C114.861 21.827 114.873 13.5421 114.842 5.2575C114.839 4.50046 115.006 4.26362 115.775 4.32145C116.775 4.39611 117.786 4.36368 118.79 4.32971C119.267 4.3135 119.418 4.45487 119.405 4.93957C119.372 6.19937 119.394 7.46039 119.394 8.7211Z" fill="#0B0015"/>
  <path d="M106.381 24.4089C105.102 27.7124 102.13 29.5402 98.6412 29.3654C95.0405 29.1843 92.3407 26.9401 91.2715 23.2299C90.8385 21.7292 90.6455 20.1986 90.7042 18.81C90.6678 16.3865 91.0093 14.205 92.0907 12.2069C93.6439 9.33199 96.1244 7.99416 99.3609 8.0979C102.795 8.20775 105.191 9.94797 106.405 13.1013C107.845 16.8378 107.829 20.668 106.381 24.4089ZM112.128 16.1793C111.392 9.62881 107.294 4.15785 99.625 3.86134C94.0506 3.64378 89.2871 6.26221 87.0671 11.7127C86.1604 13.9409 85.8373 16.2727 85.7945 18.6555C85.7642 19.4808 85.8679 20.2981 85.949 21.1154C86.5772 27.43 90.4236 32.7544 97.4154 33.4986C102.583 34.0475 107.776 32.1384 110.453 26.9116C112.185 23.5307 112.547 19.9137 112.128 16.1793Z" fill="#0B0015"/>
  <path d="M84.139 24.4008C84.1308 24.4902 84.1124 24.5921 84.0843 24.7059C83.094 28.8776 80.5243 31.5976 76.4888 32.9272C71.1947 34.6735 65.4211 33.1163 62.1683 29.0523C59.9725 26.31 59.1573 23.0734 59.0434 19.6254C58.9112 15.6162 59.5639 11.7983 62.097 8.53325C64.8905 4.93684 68.7124 3.63359 73.1283 3.88972C76.8688 4.10728 79.9937 5.59964 82.232 8.70002C83.1409 9.95828 83.6978 11.3714 84.0335 12.8757H79.2314C79.0726 12.6174 78.9245 12.3166 78.7801 11.9708C77.6414 9.26091 75.2485 8.1633 72.3841 8.10026C69.4749 8.03722 67.2038 9.24072 65.6588 11.7169C64.0468 14.3029 63.705 17.1713 63.9348 20.1355C64.1016 22.2803 64.6239 24.3277 65.8886 26.1208C68.7816 30.2173 75.3076 30.5119 78.2106 26.6778C78.6904 26.0434 79.1032 25.3522 79.2761 24.5817C79.2902 24.5168 79.3067 24.4556 79.3269 24.4008H84.139Z" fill="#0B0015"/>
  <path d="M14.8294 16.4094C14.9527 16.7221 15.076 17.0348 15.199 17.3476C14.1399 18.4134 14.0004 19.7815 13.9487 21.1753C13.9374 21.477 13.9634 21.78 13.9719 22.0823C13.5641 22.1955 13.4487 21.8549 13.2602 21.627C12.7219 20.9281 12.2137 20.1983 11.3679 19.8197C10.3835 19.0358 9.22131 18.7099 8.00986 18.5067C7.71733 18.4577 7.3893 18.5006 7.17969 18.2136C8.32106 17.5642 9.47499 16.9424 10.2586 15.8194C11.311 14.3115 11.5922 12.6456 11.3728 10.8601C11.4579 10.8365 11.5386 10.8479 11.6164 10.8889C12.0273 11.3121 12.2862 11.8439 12.6314 12.3148C12.9025 12.9669 13.3101 13.5403 13.6889 14.1303C13.9184 14.6058 14.1274 15.0936 14.4995 15.4847C14.553 15.5492 14.5986 15.6187 14.6406 15.6912C14.7522 15.9176 14.8762 16.1413 14.8294 16.4094Z" fill="#E53821"/>
  <path d="M32.7697 18.2258C32.7639 18.0768 32.7303 17.9415 32.5871 17.8614C32.3049 17.1698 31.7627 16.5994 31.6437 15.8326C31.6183 15.6707 32.0445 15.0538 32.1256 14.8497C32.2924 14.4308 32.4175 13.9969 32.5259 13.5596C32.7462 12.6701 32.8475 11.8387 32.7541 10.9204C32.8808 11.0416 33.0075 11.163 33.1342 11.2842C33.1379 11.4345 33.1755 11.5679 33.3163 11.6502C33.7043 11.9234 33.9423 12.2949 34.0406 12.7576C34.0448 12.9051 34.0785 13.0385 34.2156 13.1217C34.8548 14.5991 35.8267 15.8861 36.5999 17.2864C35.965 17.8543 35.5999 18.6533 35.4359 19.478C35.357 19.8751 35.3261 20.283 35.3129 20.6873C35.3053 20.9195 35.1703 22.1108 35.3233 22.2512C34.8668 21.8323 34.8637 21.0759 34.2327 20.7867C33.9686 20.0612 33.7379 19.3173 33.1351 18.7781C32.9937 18.6068 32.95 18.3712 32.7697 18.2258Z" fill="#E53821"/>
  <path d="M35.356 1.06902C31.9462 3.21316 31.2033 7.68105 32.9245 11.0969C33.2522 11.7478 33.5968 12.3904 33.9511 13.0275C34.6427 14.2704 35.374 15.4908 36.1051 16.7111C38.3037 20.3812 40.5023 24.0514 42.7006 27.7212C43.4772 29.0177 44.2725 30.3369 45.4117 31.3296C47.6244 33.258 51.0635 33.6255 53.6336 32.2084C56.204 30.7913 57.7288 27.6873 57.2793 24.7867C57.0556 23.3439 56.4053 22.0174 55.6829 20.7386C55.5124 20.4369 55.3383 20.1383 55.1645 19.8411C52.327 14.9862 49.4895 10.1318 46.6516 5.27712C45.9634 4.09963 45.2621 2.90501 44.2749 1.96376C42.9215 0.673973 41.0488 0.00261307 39.1831 0.00261307C37.8382 0.00261307 36.497 0.351456 35.356 1.06902ZM44.2107 3.18899C44.2079 3.18715 44.2055 3.18531 44.203 3.18317C44.2055 3.16359 44.2088 3.14462 44.2134 3.12687C44.2502 3.13574 44.2866 3.144 44.3221 3.15165C44.2964 3.1694 44.2728 3.19081 44.2501 3.21285C44.2419 3.20795 44.2336 3.20336 44.2226 3.19724C44.2327 3.20428 44.2404 3.20948 44.248 3.21438C44.2404 3.22172 44.2312 3.22693 44.2241 3.23489C44.2104 3.25355 44.1954 3.27008 44.1813 3.28782C44.1801 3.26824 44.1789 3.24866 44.1767 3.22846C44.1838 3.22938 44.1899 3.23121 44.1972 3.23213C44.1975 3.21561 44.2006 3.20031 44.2027 3.1847C44.2058 3.18623 44.207 3.18838 44.2104 3.19021C44.2159 3.19327 44.2177 3.19449 44.2226 3.19724C44.218 3.19388 44.2159 3.19297 44.2107 3.18899ZM32.7394 4.99683C32.7691 5.04793 32.7987 5.09383 32.8281 5.13636C32.8049 5.14432 32.7834 5.15381 32.7642 5.16482C32.755 5.10883 32.7467 5.05282 32.7394 4.99683Z" fill="url(#paint0_linear_4143_51)"/>
  <path d="M14.2322 0.941673C11.4192 2.58244 9.97549 6.25596 10.9189 9.37317C11.25 10.4671 11.8317 11.4659 12.4079 12.4527C15.4042 17.5837 18.4003 22.7144 21.3963 27.8454C22.0882 29.0302 22.7935 30.2322 23.7892 31.1765C25.833 33.1141 29.0567 33.69 31.6451 32.5795C34.6852 31.2754 36.1629 28.2212 36.0184 25.1802C35.9426 23.5776 35.4162 21.9785 34.4309 20.6413C33.49 19.0565 32.5497 17.4714 31.6087 15.8864C29.4383 12.2291 27.2678 8.57176 25.097 4.91446C24.5337 3.96525 23.9639 3.00747 23.202 2.20912C21.8247 0.766029 19.8241 -0.000190735 17.8345 -0.000190735C16.5762 -0.000495911 15.3222 0.306114 14.2322 0.941673ZM12.4911 11.9044C12.5006 11.9044 12.5101 11.9044 12.5196 11.9032C12.5156 11.92 12.5113 11.9347 12.5076 11.9518C12.5024 11.9347 12.4963 11.9209 12.4911 11.9044Z" fill="url(#paint1_radial_4143_51)"/>
  <path d="M5.22759 18.6267C2.61283 19.426 0.543967 21.7874 0.0941485 24.4845C-0.35567 27.1809 0.835278 30.0858 3.04796 31.6913C5.26125 33.2969 8.39131 33.5279 10.8164 32.2648C13.0804 31.0852 14.4146 28.8939 14.7025 26.5221C14.8445 25.3495 14.7313 24.1326 14.3485 22.9722C14.2763 22.7534 14.197 22.5365 14.0872 22.3342C13.9834 22.1433 13.8537 21.9676 13.7233 21.7935C13.4189 21.3862 13.108 20.9817 12.7585 20.6123C11.3644 19.1408 9.33471 18.3201 7.31267 18.3201C6.60765 18.3201 5.90354 18.4199 5.22759 18.6267ZM8.63214 18.9612C8.63244 18.9596 8.63336 18.9575 8.63366 18.956C8.63428 18.9575 8.63428 18.9599 8.63458 18.9615C8.63367 18.9615 8.63275 18.9615 8.63214 18.9612ZM14.6062 26.5068C14.6273 26.5503 14.6487 26.5934 14.6701 26.6365C14.6236 26.5971 14.6089 26.553 14.6062 26.5068Z" fill="url(#paint2_linear_4143_51)"/>
  <defs>
    <linearGradient id="paint0_linear_4143_51" x1="31.7578" y1="-3.53667" x2="50.9971" y2="26.2818" gradientUnits="userSpaceOnUse">
      <stop stop-color="#FAB811"/>
      <stop offset="0.7742" stop-color="#E84D19"/>
      <stop offset="0.942743" stop-color="#E5361A"/>
      <stop offset="1" stop-color="#E5361A"/>
    </linearGradient>
    <radialGradient id="paint1_radial_4143_51" cx="0" cy="0" r="1" gradientUnits="userSpaceOnUse" gradientTransform="translate(14.0484 2.08174) rotate(55.6468) scale(34.1015 34.1015)">
      <stop stop-color="#FBBE0E"/>
      <stop offset="0.0428239" stop-color="#FBBE0E"/>
      <stop offset="0.548437" stop-color="#E84D19"/>
      <stop offset="0.631115" stop-color="#E84D19"/>
      <stop offset="1" stop-color="#E84D19"/>
    </radialGradient>
    <linearGradient id="paint2_linear_4143_51" x1="1.23965" y1="16.374" x2="14.3247" y2="36.0718" gradientUnits="userSpaceOnUse">
      <stop stop-color="#F9B513"/>
      <stop offset="0.80776" stop-color="#E84D19"/>
      <stop offset="0.939845" stop-color="#E84D19"/>
      <stop offset="1" stop-color="#E84D19"/>
    </linearGradient>
  </defs>
</svg>