<svg width="46" height="39" viewBox="0 0 46 39" fill="none" xmlns="http://www.w3.org/2000/svg">
  <path d="M2.96323 8.26938C3.30521 7.50933 4.6166 4.70908 7.79815 3.10186C9.37848 2.3206 11.1296 1.94418 12.8929 2.00669C18.4024 2.08444 22.1588 6.07502 23.0313 7.05089C23.9024 6.07502 27.6602 2.09114 33.1697 2.00669C34.933 1.94418 36.6841 2.3206 38.2645 3.10186C41.446 4.71042 42.7574 7.50933 43.0994 8.26938C43.7708 9.78845 44.0985 11.4359 44.0594 13.0951C44.0594 13.6795 44.0096 16.0642 42.5016 19.1862C40.96 22.3792 38.7801 24.3068 37.2924 25.7545C33.6552 29.2718 29.5924 32.3335 25.2271 34.8971C23.8715 35.6932 22.1911 35.6932 20.8355 34.8971C16.4702 32.3335 12.4074 29.2718 8.77025 25.7545C7.28921 24.3095 5.10266 22.3819 3.55968 19.1862C2.05306 16.0642 2.00459 13.6795 2.00325 13.0951C1.9634 11.4358 2.29116 9.78824 2.96323 8.26938Z" fill="url(#paint0_linear_4102_8932)"/>
  <g filter="url(#filter0_f_4102_8932)">
    <path d="M41.2411 9.75537C40.9307 9.07486 39.7408 6.56766 36.8538 5.12863C35.4198 4.42914 33.8308 4.09211 32.2308 4.14808C27.2314 4.21769 23.8228 7.79066 23.0311 8.66439C22.2407 7.79066 18.8308 4.22369 13.8315 4.14808C12.2314 4.09211 10.6424 4.42914 9.20844 5.12863C6.32149 6.56886 5.13152 9.07486 4.8212 9.75537C4.21198 11.1155 3.9146 12.5905 3.95011 14.0761C3.95011 14.5993 3.99531 16.7345 5.36365 19.5297C6.76254 22.3886 8.74052 24.1144 10.0905 25.4107C13.3909 28.5599 17.0776 31.3011 21.0387 33.5965C22.2687 34.3093 23.7935 34.3093 25.0236 33.5965C28.9847 31.3011 32.6713 28.5599 35.9717 25.4107C37.3156 24.1168 39.2997 22.391 40.6998 19.5297C42.0669 16.7345 42.1109 14.5993 42.1121 14.0761C42.1483 12.5905 41.8509 11.1153 41.2411 9.75537Z" fill="url(#paint1_linear_4102_8932)" fill-opacity="0.35"/>
  </g>
  <defs>
    <filter id="filter0_f_4102_8932" x="0.0525894" y="0.247414" width="45.9573" height="37.7784" filterUnits="userSpaceOnUse" color-interpolation-filters="sRGB">
      <feFlood flood-opacity="0" result="BackgroundImageFix"/>
      <feBlend mode="normal" in="SourceGraphic" in2="BackgroundImageFix" result="shape"/>
      <feGaussianBlur stdDeviation="1.94734" result="effect1_foregroundBlur_4102_8932"/>
    </filter>
    <linearGradient id="paint0_linear_4102_8932" x1="5.69994" y1="4.62891" x2="31.4637" y2="30.6629" gradientUnits="userSpaceOnUse">
      <stop stop-color="#FF0000"/>
      <stop offset="1" stop-color="#DA0036"/>
    </linearGradient>
    <linearGradient id="paint1_linear_4102_8932" x1="7.74458" y1="5.52456" x2="34.3785" y2="25.1965" gradientUnits="userSpaceOnUse">
      <stop stop-color="#FFD500"/>
      <stop offset="1" stop-color="#FFD500" stop-opacity="0"/>
    </linearGradient>
  </defs>
</svg>