<svg width="159" height="134" viewBox="0 0 159 134" fill="none" xmlns="http://www.w3.org/2000/svg">
  <path d="M88.1715 76.754C88.0983 77.0481 88.0174 77.3344 87.9356 77.6285C87.8624 77.907 87.7824 78.1846 87.7015 78.4536C87.5387 79.0175 87.3597 79.5736 87.166 80.1202C87.0928 80.3414 87.0197 80.554 86.9387 80.7665C86.7037 81.4042 86.461 82.0323 86.201 82.6535C86.0633 82.9728 85.9333 83.2834 85.7869 83.594C85.6905 83.7987 85.601 84.0026 85.5037 84.2065C85.3978 84.4355 85.2928 84.6559 85.1792 84.8771C84.425 86.4049 83.5823 87.8677 82.65 89.2645C82.5036 89.5022 82.3495 89.7312 82.1791 89.9594C81.5464 90.8747 80.874 91.757 80.1767 92.6151C79.9495 92.8927 79.7145 93.1703 79.4708 93.441C79.2117 93.7429 78.944 94.037 78.6771 94.3311C78.4981 94.5272 78.319 94.7155 78.1339 94.9029C77.9876 95.0582 77.8335 95.2221 77.6786 95.3766C77.4763 95.5822 77.2739 95.7861 77.063 95.9821C76.333 96.6849 75.5876 97.3555 74.8171 98.0003C74.6553 98.1389 74.4839 98.2778 74.3144 98.4087C73.8925 98.7523 73.4552 99.0871 73.017 99.4141C72.5952 99.7327 72.1657 100.035 71.7275 100.329C71.4847 100.493 71.2411 100.656 70.9984 100.811C70.8038 100.942 70.6006 101.073 70.4061 101.188C70.1392 101.358 69.8792 101.515 69.6029 101.678C69.1406 101.963 68.6629 102.233 68.1842 102.486C67.9415 102.625 67.6987 102.748 67.4542 102.871C66.9687 103.124 66.4815 103.36 65.9873 103.59C65.7437 103.705 65.4923 103.819 65.241 103.925C65.0628 104.006 64.8846 104.08 64.7064 104.162C64.6169 104.194 64.5273 104.235 64.4309 104.276C63.9686 104.464 63.5055 104.652 63.0363 104.815C62.2004 105.133 61.3499 105.42 60.4899 105.673C60.2954 105.731 60.1 105.787 59.9063 105.846C59.6222 105.919 59.3304 106 59.0385 106.074C58.658 106.172 58.2844 106.261 57.9039 106.344C57.5148 106.433 57.1249 106.514 56.7358 106.588C56.6953 106.597 56.6626 106.606 56.6221 106.613C56.2649 106.678 55.9085 106.744 55.5521 106.801C53.1107 107.202 50.6229 107.373 48.1006 107.307C47.4274 107.292 46.7542 107.259 46.081 107.202C44.3705 107.07 42.6436 106.826 40.9168 106.458C40.3572 106.344 39.8054 106.213 39.2545 106.074C17.7512 100.566 4.7059 78.4458 10.1628 56.7745C15.6267 35.1041 37.5758 21.9551 59.079 27.4633C60.644 27.8633 62.1686 28.3535 63.6363 28.9261C64.2846 29.1794 64.9164 29.4405 65.5414 29.7268C65.866 29.8657 66.1819 30.0131 66.4978 30.1676C67.0574 30.4296 67.6092 30.7159 68.1438 31.01C68.5088 31.1982 68.8738 31.4021 69.231 31.6138C69.6365 31.8437 70.0411 32.0884 70.4388 32.3417C70.5602 32.4155 70.6816 32.497 70.8038 32.5794C71.087 32.759 71.3711 32.9464 71.6543 33.1425C72.0279 33.3872 72.3929 33.6405 72.7493 33.9181C73.0661 34.1394 73.3734 34.3762 73.6739 34.613C73.698 34.6217 73.7143 34.6382 73.7384 34.6625C73.7548 34.6625 73.7634 34.6781 73.7789 34.6955C74.0475 34.8994 74.3057 35.111 74.5657 35.3245C74.8575 35.5526 75.1416 35.7904 75.4171 36.0437C75.758 36.3378 76.0903 36.631 76.4148 36.9338C76.7462 37.2444 77.0794 37.555 77.3953 37.8821C77.5735 38.0539 77.7449 38.2248 77.9144 38.4044C78.109 38.6013 78.2949 38.8052 78.4817 39.0099C79.204 39.7699 79.8849 40.5698 80.5331 41.388C80.8818 41.8296 81.2304 42.2781 81.5627 42.7362C81.8063 43.0711 82.0491 43.4146 82.2764 43.7573C82.3659 43.8797 82.4468 44.0029 82.5363 44.133C82.7636 44.4766 82.99 44.8201 83.2009 45.1706C83.4359 45.5385 83.6632 45.915 83.8818 46.2907C83.9137 46.3479 83.9473 46.4052 83.98 46.4616C84.3682 47.1409 84.741 47.835 85.0905 48.5377C85.1232 48.595 85.1464 48.6522 85.1705 48.7095C85.2773 48.9055 85.3737 49.1008 85.4632 49.2977C85.8851 50.1809 86.2742 51.0797 86.6306 52.0019C86.801 52.4357 86.9628 52.86 87.1083 53.2929C87.271 53.7432 87.4174 54.1926 87.5551 54.642C87.5792 54.7157 87.6042 54.7808 87.6197 54.8545C87.7574 55.2953 87.8874 55.7369 88.001 56.1785C88.131 56.6444 88.2446 57.1102 88.3583 57.5753C88.4874 58.1314 88.6096 58.6953 88.7069 59.2584C88.8929 60.2153 89.0392 61.1792 89.1442 62.1509C89.2097 62.6576 89.2579 63.1642 89.2906 63.6796C89.3302 64.1212 89.3551 64.5706 89.3706 65.02C89.3792 65.1015 89.3879 65.1753 89.3793 65.2568C89.4034 65.7635 89.412 66.2623 89.412 66.769C89.412 70.0693 89.0143 73.4121 88.1715 76.754ZM98.3063 65.2325V65.1501C98.2908 64.6278 98.2581 64.1047 98.2254 63.5815C98.2013 63.2059 98.1772 62.838 98.1367 62.4623C98.1281 62.3235 98.1195 62.1847 98.104 62.0537C98.0876 61.8576 98.0635 61.6616 98.0463 61.4733C97.9499 60.525 97.8199 59.5941 97.6658 58.6623C97.6012 58.2858 97.5367 57.9188 97.4635 57.551C97.3903 57.1337 97.3008 56.7259 97.2121 56.3173C97.1631 56.0726 97.1071 55.8262 97.0494 55.5902C96.9763 55.2632 96.8962 54.9361 96.8144 54.609C96.7576 54.38 96.6931 54.1518 96.6362 53.9228C96.1258 52.0106 95.5008 50.1392 94.7716 48.3173C94.5762 47.835 94.3825 47.3613 94.1716 46.8876C93.9848 46.4546 93.7816 46.0208 93.588 45.5879C93.3443 45.0734 93.093 44.5581 92.8338 44.0514C92.598 43.602 92.3552 43.1526 92.1116 42.7032C91.8602 42.2538 91.6089 41.8044 91.3411 41.3637C91.1302 40.9958 90.9116 40.6436 90.6852 40.2844C90.612 40.1621 90.5311 40.0389 90.4493 39.9244C90.1979 39.5244 89.9397 39.1323 89.6797 38.7401C89.3879 38.315 89.0874 37.8908 88.7792 37.4734C88.496 37.0813 88.2042 36.6892 87.9037 36.3048C87.7092 36.0437 87.506 35.7817 87.2874 35.5283C87.0765 35.2507 86.8501 34.9731 86.6142 34.7033C85.8041 33.7307 84.9527 32.7911 84.0523 31.8845C83.8173 31.639 83.5737 31.4021 83.3309 31.1653C83.2732 31.0993 83.2087 31.0421 83.1527 30.9857C83.0881 30.9198 83.0219 30.8547 82.9573 30.8061C82.7636 30.6092 82.5682 30.4296 82.3736 30.25C82.0741 29.9724 81.7736 29.6939 81.4663 29.4249C81.1013 29.1057 80.744 28.7951 80.3713 28.4845C80.274 28.4029 80.1767 28.3214 80.0717 28.2398C79.7386 27.9613 79.3908 27.6924 79.049 27.4304C78.7331 27.1857 78.4172 26.9402 78.0926 26.7033C77.8412 26.5151 77.5821 26.3355 77.3222 26.1559C77.0553 25.9598 76.779 25.7715 76.4949 25.5841C76.0653 25.2892 75.6203 24.9951 75.1735 24.7174C70.982 22.0783 66.3196 20.0429 61.2768 18.7441C50.152 15.9002 38.9377 17.1348 29.192 21.5221C26.9142 22.5441 24.725 23.7371 22.6323 25.094C20.6704 26.352 18.7972 27.7574 17.0299 29.2931C9.6601 35.7001 4.09726 44.362 1.51901 54.5682C-5.15431 81.0442 10.7861 108.059 37.0576 114.784C40.8358 115.749 44.6218 116.247 48.3519 116.304C48.6437 116.313 48.9278 116.313 49.2197 116.313C49.6819 116.313 50.1434 116.304 50.5979 116.289C50.7356 116.289 50.8734 116.28 51.0197 116.28C51.4329 116.264 51.8384 116.239 52.243 116.215C52.3411 116.206 52.4384 116.198 52.5357 116.191C53.0462 116.157 53.5489 116.117 54.0516 116.068C54.1248 116.059 54.198 116.051 54.2711 116.043C54.7653 115.994 55.2439 115.938 55.7303 115.864C56.2494 115.797 56.7762 115.717 57.2876 115.626C57.3194 115.618 57.3599 115.61 57.4012 115.602C57.9194 115.52 58.4222 115.422 58.9335 115.316C59.4595 115.21 59.9872 115.087 60.514 114.964C61.0409 114.834 61.56 114.704 62.0791 114.556C62.1195 114.547 62.16 114.539 62.209 114.523C62.5732 114.417 62.9382 114.311 63.2946 114.205C64.0978 113.959 64.9009 113.698 65.7032 113.404C65.9796 113.305 66.2551 113.199 66.5305 113.093C67.4542 112.742 68.371 112.359 69.2792 111.949C69.547 111.834 69.8061 111.712 70.066 111.59C70.5438 111.361 71.0225 111.124 71.4925 110.886C73.3898 109.906 75.2312 108.803 76.9907 107.586C77.3385 107.34 77.6872 107.095 78.0358 106.841C78.344 106.621 78.6436 106.393 78.944 106.164C79.3245 105.869 79.6981 105.575 80.0717 105.273C80.4031 105.003 80.7363 104.726 81.06 104.447C81.3768 104.178 81.685 103.9 81.9931 103.622C82.3254 103.328 82.65 103.026 82.9745 102.715C83.2818 102.421 83.5909 102.119 83.8982 101.817C84.1987 101.515 84.4982 101.203 84.7987 100.893C85.0905 100.575 85.3901 100.255 85.6733 99.9364C86.2742 99.2667 86.857 98.5804 87.426 97.8779C87.6774 97.5672 87.9201 97.2566 88.1629 96.9382C88.4142 96.6025 88.6656 96.2754 88.9092 95.9327C89.1856 95.5492 89.4602 95.1562 89.7279 94.7641C89.9629 94.4214 90.191 94.0778 90.4174 93.7186C90.6602 93.3508 90.8875 92.9829 91.1147 92.6072C91.1388 92.583 91.1552 92.55 91.1716 92.517C91.3816 92.1743 91.5848 91.823 91.7879 91.4707C91.998 91.1037 92.2003 90.7359 92.3957 90.368C93.2548 88.7665 94.033 87.1155 94.7226 85.3994C94.8767 85.0324 95.0144 84.6559 95.1607 84.2802C95.493 83.3814 95.809 82.4661 96.093 81.5343C96.1981 81.1917 96.304 80.8394 96.4012 80.4967C96.5467 79.99 96.6844 79.4834 96.8144 78.9689C97.844 74.8913 98.3313 70.805 98.3313 66.7768C98.3313 66.2623 98.3226 65.747 98.3063 65.2325Z" fill="#E4CD9D"/>
  <path opacity="0.56" d="M96.8148 78.9667C91.097 101.642 70.6156 116.682 48.3574 116.302C45.5132 113.314 43.0193 110.003 40.918 106.455C61.8849 110.896 82.8466 97.8669 88.1701 76.7535C93.2388 56.6526 82.386 36.1846 63.6376 28.9221C67.3031 27.0942 71.1726 25.6826 75.1799 24.7196C92.8325 35.8324 102.208 57.5757 96.8148 78.9667Z" fill="#F5BC42"/>
  <path d="M86.1531 118.077C80.6557 116.672 75.7178 114.179 71.4936 110.886C68.9636 108.909 66.6858 106.646 64.7075 104.162C57.0778 94.56 53.8427 81.5993 57.0692 68.7868C60.2965 55.9736 69.2804 46.143 80.5343 41.3878C83.4535 40.1454 86.5181 39.2544 89.6809 38.74C94.951 37.8733 100.481 38.0615 105.978 39.467C114.687 41.6975 122.008 46.6497 127.271 53.1956C129.532 56.0057 131.413 59.1038 132.857 62.4041C136.384 70.4214 137.364 79.6307 135.062 88.7663C129.605 110.438 107.657 123.586 86.1531 118.077ZM133.806 47.0505C127.4 39.2874 118.602 33.42 108.175 30.7565C99.6538 28.5745 91.0832 28.7949 83.1539 30.9855C79.8947 31.8844 76.7405 33.1181 73.7396 34.6623C61.5775 40.9219 52.0418 52.2143 48.4177 66.5719C44.8012 80.9295 47.834 95.4502 55.5533 106.801C57.4583 109.596 59.6397 112.195 62.0802 114.556C68.0072 120.293 75.4432 124.607 83.9562 126.788C97.2219 130.188 110.625 127.777 121.497 121.143C132.167 114.638 140.406 104.08 143.713 90.9726C147.735 75.0056 143.535 58.8418 133.806 47.0505Z" fill="#E4CD9D"/>
  <path opacity="0.56" d="M143.712 90.9733C140.405 104.081 132.166 114.638 121.496 121.144C148.894 94.1521 141.499 71.9499 140.008 66.7609C139.245 64.1217 136.067 62.9288 132.856 62.4048C131.412 59.1045 129.531 56.0064 127.27 53.1963L128.071 49.6011L133.805 47.0512C143.534 58.8425 147.734 75.0064 143.712 90.9733Z" fill="#F5BC42"/>
  <path d="M154.664 47.8928C154.568 48.0568 154.466 48.2207 154.36 48.3847C154.301 48.4802 154.24 48.5712 154.175 48.6658C154.108 48.7708 154.034 48.8775 153.959 48.9807C153.869 49.1083 153.777 49.2384 153.679 49.3642C153.586 49.4909 153.49 49.6149 153.391 49.7407C153.346 49.7963 153.301 49.8544 153.252 49.9108C153.19 49.9897 153.124 50.0678 153.058 50.1468C153.005 50.2118 152.951 50.276 152.893 50.3385C152.803 50.4461 152.707 50.5563 152.609 50.6656C152.492 50.7975 152.373 50.9276 152.248 51.0577C152.16 51.1506 152.067 51.2451 151.974 51.3406C151.921 51.3996 151.864 51.456 151.808 51.5141C151.298 52.0251 150.757 52.4884 150.189 52.9074C149.621 53.3299 149.03 53.7065 148.413 54.0457C148.151 54.1906 147.883 54.3285 147.612 54.4586C147.431 54.5463 147.248 54.6304 147.065 54.712C146.882 54.7927 146.694 54.8716 146.509 54.9454C146.231 55.0607 145.946 55.1657 145.661 55.2655C135.764 58.7263 122.655 54.5992 122.155 54.443C122.152 54.4378 122.144 54.4387 122.144 54.4387C122.144 54.4387 115.764 34.048 125.229 24.5671C126.761 23.0332 128.283 21.934 129.761 21.2087C130.577 20.8104 131.38 20.5233 132.165 20.3393C132.533 20.2543 132.894 20.1927 133.254 20.1511C134.395 20.0183 135.492 20.106 136.528 20.3784C137.79 20.7098 138.96 21.3154 140.003 22.1344L140.005 22.1361C140.284 22.3565 140.553 22.5924 140.816 22.8432C141.08 23.0982 141.334 23.3655 141.578 23.6457C141.899 24.0161 142.2 24.41 142.481 24.8247C143.406 26.1799 144.115 27.752 144.559 29.4463C144.592 29.5635 144.619 29.6797 144.646 29.796C144.786 30.3738 144.894 30.9663 144.97 31.5684C148.12 31.9918 151.009 33.3357 153.081 35.2903C153.16 35.3632 153.235 35.4361 153.309 35.5116C153.339 35.5419 153.372 35.5732 153.401 35.6044C153.475 35.6799 153.549 35.758 153.621 35.8343C153.709 35.9272 153.792 36.0226 153.875 36.118C153.966 36.2204 154.054 36.3271 154.141 36.4329C154.204 36.5128 154.266 36.5926 154.329 36.6733C154.348 36.6993 154.368 36.7253 154.389 36.754C154.45 36.8364 154.511 36.9188 154.57 37.0021L154.571 37.0056C154.643 37.1079 154.712 37.2112 154.78 37.3153C154.859 37.4359 154.935 37.5591 155.008 37.6849C155.06 37.7734 155.112 37.8627 155.162 37.9556C155.221 38.0623 155.279 38.1733 155.333 38.2826C155.382 38.3807 155.429 38.4787 155.474 38.5785C155.481 38.5906 155.487 38.6054 155.492 38.6166C155.539 38.719 155.583 38.8214 155.624 38.9229C155.646 38.9698 155.665 39.0175 155.683 39.0687C155.708 39.1311 155.731 39.1962 155.755 39.263C155.81 39.4113 155.862 39.5649 155.907 39.7202C155.937 39.8148 155.965 39.9111 155.992 40.0091C156.024 40.128 156.054 40.2477 156.081 40.37C156.104 40.4741 156.126 40.5808 156.147 40.6876C156.152 40.7049 156.154 40.7205 156.156 40.7361C156.2 40.9808 156.234 41.2289 156.259 41.4814C156.273 41.6245 156.285 41.7677 156.292 41.9134C156.296 42.021 156.299 42.1347 156.299 42.2457C156.301 42.3429 156.302 42.4435 156.298 42.5433C156.299 42.5806 156.297 42.6197 156.296 42.6613C156.292 42.781 156.285 42.9025 156.275 43.0248C156.267 43.1385 156.259 43.2547 156.245 43.3727C156.24 43.41 156.236 43.4499 156.228 43.4916C156.217 43.5974 156.203 43.7033 156.186 43.8091C156.185 43.8169 156.183 43.8239 156.183 43.8325C156.16 43.9618 156.138 44.0902 156.112 44.2221C156.089 44.3366 156.064 44.452 156.036 44.5665C155.998 44.7227 155.958 44.8806 155.909 45.0393C155.878 45.1547 155.845 45.2675 155.807 45.3812C155.703 45.7056 155.579 46.0318 155.439 46.3607C155.399 46.4622 155.354 46.5637 155.306 46.6626C155.254 46.7814 155.196 46.8977 155.138 47.0165C155.089 47.112 155.042 47.2092 154.99 47.3055C154.937 47.4078 154.88 47.5102 154.823 47.6134C154.771 47.7063 154.719 47.8 154.664 47.8928Z" fill="url(#paint0_linear_4102_9535)"/>
  <path d="M151.805 51.5134C142.489 60.8459 122.77 54.6349 122.156 54.4432C122.838 54.4796 140.977 55.5094 148.466 49.0659C153.294 44.9093 154.825 41.5084 153.082 35.2905C157.118 39.0983 158.055 45.2512 151.805 51.5134Z" fill="#FF2E00"/>
  <path d="M144.972 31.5716L144.685 31.8579C143.387 33.1584 141.796 29.6872 141.164 27.3899C140.498 24.9711 140.988 24.8444 140.006 22.1367C142.659 24.231 144.491 27.7109 144.972 31.5716Z" fill="#FF2E00"/>
  <path d="M135.98 24.2147C136.073 25.4293 134.415 26.5494 132.276 26.7177C130.136 26.8851 128.325 26.0366 128.232 24.822C128.138 23.6074 129.796 22.4865 131.937 22.3182C134.076 22.1508 135.886 23.0001 135.98 24.2147Z" fill="#FAB8DC"/>
  <path d="M52.3977 5.28723C52.4967 5.44947 52.5931 5.61691 52.6887 5.78783C52.7455 5.885 52.7954 5.98216 52.8497 6.08366C52.9099 6.19211 52.9685 6.30838 53.0244 6.4229C53.095 6.56258 53.1647 6.70573 53.231 6.85148C53.2973 6.99376 53.3619 7.13691 53.4264 7.2844C53.4548 7.34947 53.4841 7.41802 53.5117 7.48656C53.5513 7.57939 53.5891 7.67307 53.6279 7.77024C53.6606 7.84746 53.6916 7.92641 53.72 8.00537C53.7716 8.13811 53.8233 8.27431 53.8741 8.41225C53.9343 8.57796 53.9937 8.74541 54.0497 8.91719C54.0902 9.03952 54.1306 9.16618 54.1711 9.29372C54.1969 9.3692 54.2201 9.44555 54.2451 9.52189C54.456 10.2151 54.611 10.9135 54.7143 11.6154C54.8202 12.3181 54.8744 13.0217 54.8847 13.7297C54.889 14.0307 54.8856 14.3335 54.8735 14.6363C54.8658 14.8393 54.8554 15.0414 54.8408 15.2418C54.827 15.4431 54.8081 15.6461 54.7874 15.8448C54.7573 16.1476 54.7177 16.4512 54.673 16.7506C53.0959 27.1893 43.3605 36.9521 42.9903 37.3243C42.9843 37.3252 42.9809 37.333 42.9809 37.333C42.9809 37.333 22.1078 33.5139 18.1987 20.6547C17.5659 18.5742 17.3103 16.7046 17.3645 15.0484C17.3946 14.1357 17.5177 13.2846 17.7218 12.4994C17.819 12.1316 17.9327 11.7802 18.0644 11.441C18.4802 10.3608 19.0681 9.42385 19.7895 8.62828C20.6702 7.65659 21.7462 6.89659 22.9523 6.34915L22.954 6.34741C23.2785 6.20166 23.6108 6.07065 23.9526 5.9544C24.3004 5.83727 24.6542 5.73576 25.0132 5.64901C25.4875 5.53622 25.9739 5.45034 26.468 5.39481C28.089 5.20047 29.8004 5.30111 31.4954 5.69586C31.6125 5.72102 31.727 5.75051 31.8415 5.78001C32.4139 5.9249 32.9846 6.10537 33.5502 6.3188C35.389 3.70738 37.9156 1.75792 40.598 0.822674C40.6988 0.786236 40.7986 0.753273 40.8993 0.722908C40.9398 0.70903 40.9811 0.695129 41.0224 0.682983C41.124 0.652618 41.2265 0.624008 41.328 0.594509C41.4486 0.559807 41.5725 0.529434 41.6948 0.500805C41.8273 0.466969 41.9607 0.439201 42.0942 0.410572C42.1949 0.392353 42.2939 0.373276 42.3938 0.355057C42.4247 0.34985 42.4575 0.343761 42.4919 0.339424C42.5935 0.322941 42.6942 0.306454 42.7949 0.293442L42.7984 0.294308C42.9215 0.277824 43.0446 0.264812 43.1677 0.251801C43.3106 0.237919 43.4543 0.22665 43.5989 0.221447C43.7005 0.215374 43.803 0.211891 43.908 0.210155C44.0285 0.207554 44.1533 0.207554 44.2747 0.210155C44.3841 0.211891 44.4917 0.21624 44.6001 0.221447C44.6139 0.221447 44.6294 0.223183 44.6414 0.224052C44.7525 0.229256 44.8635 0.238781 44.972 0.249195C45.0228 0.252663 45.0744 0.257885 45.1278 0.264824C45.1941 0.271767 45.263 0.281315 45.331 0.290855C45.4885 0.31081 45.6461 0.33683 45.8045 0.368061C45.9009 0.38628 45.999 0.406231 46.0971 0.427921C46.2168 0.454815 46.3356 0.483444 46.4552 0.515545C46.5577 0.545044 46.6619 0.575413 46.766 0.605778C46.7824 0.609249 46.797 0.615314 46.8117 0.620522C47.0475 0.695133 47.2817 0.779285 47.5141 0.877319C47.6467 0.930241 47.7775 0.985786 47.9084 1.04912C48.0057 1.09423 48.1072 1.14455 48.2036 1.19661C48.2906 1.23998 48.3775 1.28595 48.4653 1.3354C48.4981 1.35189 48.5299 1.37273 48.5661 1.39355C48.6702 1.45341 48.7735 1.515 48.876 1.58094C48.9732 1.6408 49.0705 1.70413 49.1678 1.77006C49.1979 1.79175 49.2315 1.81431 49.2642 1.83947C49.352 1.9002 49.4381 1.9618 49.5225 2.02686C49.5285 2.03207 49.5345 2.03642 49.5431 2.03989C49.6456 2.11971 49.748 2.2004 49.8513 2.28542C49.9417 2.35917 50.0304 2.43464 50.1182 2.51271C50.237 2.6203 50.3575 2.72875 50.4746 2.84674C50.5607 2.9283 50.645 3.00984 50.7268 3.09746C50.9635 3.34125 51.1917 3.60413 51.4155 3.88176C51.4852 3.96505 51.5532 4.05267 51.6178 4.14116C51.6979 4.24354 51.7736 4.3485 51.8494 4.45609C51.9122 4.54458 51.9742 4.63221 52.0344 4.7233C52.1007 4.81701 52.1636 4.91592 52.2264 5.01482C52.2841 5.10592 52.3426 5.19527 52.3977 5.28723Z" fill="url(#paint1_linear_4102_9535)"/>
  <path d="M54.2422 9.52427C58.0902 22.1823 43.4445 36.8669 42.9899 37.3232C43.3395 36.7333 52.7021 21.0422 50.5379 11.3601C49.1407 5.11696 46.869 2.16806 40.5977 0.821579C45.823 -1.0012 51.6605 1.03154 54.2422 9.52427Z" fill="#FF2E00"/>
  <path d="M33.5502 6.31938L33.6682 6.70806C34.2036 8.47185 30.4133 8.27317 28.1036 7.76563C25.6691 7.23034 25.787 6.73407 22.9531 6.348C26.0272 4.95987 29.9364 4.94861 33.5502 6.31938Z" fill="#FF2E00"/>
  <path d="M22.9023 10.9054C24.012 11.3886 24.222 13.3893 23.3715 15.3743C22.521 17.361 20.9319 18.5791 19.8222 18.0959C18.7126 17.6135 18.5017 15.612 19.3522 13.627C20.2027 11.6411 21.7918 10.4221 22.9023 10.9054Z" fill="#FAB8DC"/>
  <path d="M87.1799 17.7305L93.9135 18.2493L87.7515 15.4652L89.9561 13.5592L87.241 14.6011L87.7558 7.81577L84.9933 14.0259L83.1012 11.8032L84.1359 14.5404L77.4023 14.0207L83.5652 16.8048L81.3606 18.7117L84.0748 17.6689L83.56 24.4551L86.3225 18.2449L88.2146 20.4677L87.1799 17.7305Z" fill="#F9ABD6"/>
  <path d="M152.268 33.7368L159.001 34.2556L152.839 31.4716L155.044 29.5646L152.328 30.6075L152.843 23.8213L150.081 30.0323L148.189 27.8095L149.224 30.5459L142.49 30.027L148.652 32.8111L146.447 34.7172L149.163 33.6752L148.648 40.4614L151.41 34.2504L153.302 36.4732L152.268 33.7368Z" fill="#F9ABD6"/>
  <path d="M19.3652 10.7766L24.1041 11.1419L19.7672 9.18202L21.3193 7.83987L19.4082 8.57384L19.7706 3.79782L17.8268 8.16869L16.4951 6.60443L17.2234 8.53046L12.4844 8.16522L16.8213 10.1251L15.2692 11.4672L17.1803 10.7332L16.8179 15.5093L18.7617 11.1384L20.0934 12.7018L19.3652 10.7766Z" fill="#F9ABD6"/>
  <path opacity="0.56" d="M32.7298 126.304L39.4643 126.822L33.3014 124.039L35.5069 122.132L32.7918 123.175L33.3057 116.389L30.5433 122.599L28.652 120.377L29.6859 123.113L22.9531 122.594L29.1151 125.378L26.9105 127.285L29.6256 126.242L29.1099 133.029L31.8724 126.819L33.7654 129.04L32.7298 126.304Z" fill="#F5BC42"/>
  <path d="M118.502 92.318L125.236 92.8368L119.073 90.0536L121.278 88.1458L118.563 89.1895L119.078 82.4024L116.316 88.6125L114.423 86.3907L115.458 89.127L108.725 88.6091L114.887 91.3931L112.682 93.2992L115.397 92.2572L114.882 99.0425L117.645 92.8324L119.536 95.0543L118.502 92.318Z" fill="#F9ABD6"/>
  <path d="M32.4838 56.6186L35.353 53.9265L31.7503 55.4812L31.8106 53.7825L31.1839 55.3598L28.5135 52.469L30.0553 56.1007L28.3706 56.0399L29.9356 56.6715L27.0664 59.3628L30.6699 57.8081L30.6097 59.5068L31.2364 57.9287L33.9076 60.8203L32.365 57.1895L34.0505 57.2502L32.4838 56.6186Z" fill="#F9ABD6"/>
  <defs>
    <linearGradient id="paint0_linear_4102_9535" x1="118.149" y1="56.644" x2="163.945" y2="49.6966" gradientUnits="userSpaceOnUse">
      <stop stop-color="#FF2E00"/>
      <stop offset="1" stop-color="#FFBA08"/>
    </linearGradient>
    <linearGradient id="paint1_linear_4102_9535" x1="15.3994" y1="37.333" x2="62.7575" y2="30.0113" gradientUnits="userSpaceOnUse">
      <stop stop-color="#FF2E00"/>
      <stop offset="1" stop-color="#FFBA08"/>
    </linearGradient>
  </defs>
</svg>