<svg width="139" height="149" viewBox="0 0 139 149" fill="none" xmlns="http://www.w3.org/2000/svg">
  <path d="M136.284 56.6121C136.13 57.0509 135.968 57.4926 135.799 57.9187C133.816 62.9406 130.716 67.2952 126.94 71.0692C114.429 83.5929 94.5272 89.7009 83.608 92.254C79.1519 93.2984 76.1947 93.7472 75.8374 93.7989C75.8253 93.7947 75.809 93.8018 75.809 93.8018C75.809 93.8018 73.1042 90.9544 69.4309 86.1992C62.1658 76.7802 51.0892 59.877 49.6563 42.7526C49.2202 37.4897 49.6896 32.2113 51.46 27.1199L51.4933 27.0299C57.636 9.46877 69.4139 4.1662 80.5728 6.52644C85.9647 7.68211 91.1978 10.623 95.5773 14.8366C97.5802 16.7707 99.4058 18.9651 100.982 21.3785C104.038 20.3632 107.165 19.7471 110.252 19.5358C114.414 19.2373 118.496 19.6762 122.206 20.8184C131.526 23.6841 138.537 31.0584 138.757 42.7427C138.78 43.9912 138.725 45.2866 138.587 46.6251C138.279 49.705 137.526 53.0352 136.284 56.6121Z" fill="url(#paint0_linear_4102_9336)"/>
  <path d="M107.171 27.9431C107.171 27.9431 107.443 33.6208 110.043 33.7399C112.645 33.859 128.085 29.5618 132.872 37.36C137.659 45.1583 133.132 63.271 133.132 63.271L108.95 53.6605L98.3066 39.9833L107.171 27.9431Z" fill="#EE7B31"/>
  <path d="M64.9727 21.3799C64.9727 21.3799 73.7302 15.6413 78.9307 21.1253C84.1312 26.6101 92.3023 34.4339 92.3023 34.4339L89.4777 44.6406L66.782 37.7492L64.9727 21.3799Z" fill="#EE7B31"/>
  <path d="M136.282 56.6132C126.004 86.1699 77.3502 93.5675 75.8379 93.8008C77.3346 93.1662 117.238 76.4126 126.598 54.9017C132.629 41.0295 132.38 32.206 122.206 20.8139C134.792 24.6907 143.178 36.7819 136.282 56.6132Z" fill="#EE7B31"/>
  <path d="M110.253 19.5358L83.6087 92.254C79.1527 93.2984 76.1955 93.7472 75.8381 93.7989C75.8261 93.7947 75.8098 93.8018 75.8098 93.8018C75.8098 93.8018 73.105 90.9544 69.4316 86.1992L95.578 14.8366C97.5809 16.7707 99.4066 18.9651 100.983 21.3785C104.038 20.3632 107.166 19.7471 110.253 19.5358Z" fill="#FF2E00"/>
  <path d="M102.666 40.2382L92.5253 67.916C91.968 66.2726 90.5805 63.2898 87.5942 61.7087C84.3222 59.9838 80.2596 60.8239 78.5488 61.311L86.6364 39.2399L86.9632 39.5668C89.8431 42.4191 94.329 43.5308 97.9931 42.2815C99.5273 41.7576 101.154 41.089 102.666 40.2382Z" fill="#FEECF1"/>
  <path d="M135.799 57.9189C133.816 62.9407 130.716 67.2953 126.94 71.0693L49.6563 42.7527C49.2202 37.4899 49.6896 32.2114 51.46 27.1201L51.4933 27.03L135.799 57.9189Z" fill="#FCD8E0"/>
  <path d="M111.527 66.7777C110.57 67.4102 109.056 67.8249 106.948 67.7498C103.929 67.6477 103.103 69.2358 101.395 69.5315C101.389 69.5294 101.387 69.5357 101.387 69.5357L101.385 69.5414C100.333 69.7116 98.9565 69.3968 96.5423 67.9029C90.7761 64.326 91.9275 56.486 92.2416 54.8517C92.2799 54.6553 93.846 52.9523 93.846 52.9523C93.846 52.9523 94.923 53.5096 96.5558 54.3788C101.528 57.0142 111.679 62.4954 112.479 63.7716C113.089 64.7337 112.794 65.9475 111.527 66.7777Z" fill="white"/>
  <path d="M111.528 66.7778C106.319 64.1241 97.8612 58.4968 97.8612 58.4968L99.6032 62.2325L92.9727 54.5434L96.5566 54.3789C101.529 57.0142 111.68 62.4955 112.48 63.7717C113.09 64.7338 112.795 65.9476 111.528 66.7778Z" fill="#FCD8E0"/>
  <path d="M92.0449 53.6583C92.0449 53.6583 117.56 71.8016 123.405 68.1268C129.25 64.4528 125.169 60.2002 125.169 60.2002L116.43 54.2787L106.519 51.8894L92.2115 51.4626L92.0449 53.6583Z" fill="#EA7E8C"/>
  <path d="M121.739 51.9345C121.335 52.6875 121.045 53.144 121.045 53.144L117.996 52.9009L103.343 51.7339L92.7227 49.9373L91.957 49.8068L92.1584 48.1648C92.1584 48.1648 92.6788 47.7252 93.6218 47.0204C93.8543 46.8482 94.1159 46.6525 94.408 46.4476C98.65 43.379 108.316 37.2895 117.986 37.3696C121.65 37.3965 123.479 38.6763 124.214 40.4984C125.653 44.0079 123.059 49.5161 121.739 51.9345Z" fill="#FCD8E0"/>
  <path d="M121.737 51.9345L117.994 52.9009L103.341 51.7339L92.7207 49.9373L93.6197 47.0205L93.8069 46.4178C93.8069 46.4178 94.0175 46.4341 94.406 46.4476C96.2884 46.5071 102.329 46.5036 108.899 44.3702L106.894 45.533C107.607 45.2522 117.61 41.2783 124.212 40.4984C125.651 44.0079 123.057 49.5161 121.737 51.9345Z" fill="#D81647"/>
  <path d="M90.4535 46.4806C90.4535 46.4806 104.608 49.223 119.919 42.7534C129.692 38.6249 134.226 46.8301 129.977 52.7722C126.31 57.899 126.546 63.3022 126.546 63.3022C126.546 63.3022 125.83 61.7368 124.461 61.1235C119.724 59.0015 115.534 64.8393 92.0452 53.6585C90.0941 52.7304 89.4354 50.1029 90.4535 46.4806Z" fill="white"/>
  <path d="M63.2725 49.0982C63.5944 50.1985 64.4821 51.4932 66.139 52.7984C68.5106 54.6702 68.1143 56.4164 69.2267 57.7458C69.2331 57.7479 69.231 57.7543 69.231 57.7543L69.2288 57.7593C69.9215 58.5697 71.175 59.2184 73.9833 59.6374C80.6947 60.6321 84.8813 53.9045 85.6974 52.4546C85.7952 52.2802 85.7002 49.9681 85.7002 49.9681C85.7002 49.9681 84.5183 49.6973 82.7097 49.3066C77.2128 48.1049 65.9228 45.7312 64.4878 46.1877C63.4009 46.5288 62.8422 47.6454 63.2725 49.0982Z" fill="white"/>
  <path d="M63.2725 49.0984C68.963 50.437 79.0541 51.6068 79.0541 51.6068L75.3106 53.3325L85.3401 51.7479L82.7097 49.3068C77.2128 48.1051 65.9228 45.7314 64.4878 46.188C63.4009 46.529 62.8422 47.6457 63.2725 49.0984Z" fill="#FCD8E0"/>
  <path d="M86.6199 51.6709C86.6199 51.6709 55.4241 49.0363 53.3361 42.4547C51.2488 35.8738 57.1108 35.264 57.1108 35.264L67.6067 36.3906L76.7152 40.9707L87.9117 49.8878L86.6199 51.6709Z" fill="#EA7E8C"/>
  <path d="M65.07 31.1705C64.8928 32.0071 64.8184 32.5431 64.8184 32.5431L67.3027 34.3276L79.2408 42.9036L88.5081 48.3934L89.1773 48.7876L90.0834 47.4051C90.0834 47.4051 89.9707 46.7336 89.7062 45.5858C89.6396 45.3043 89.5666 44.986 89.4758 44.6407C88.2209 39.5586 84.7766 28.6649 77.3442 22.4789C74.5302 20.1321 72.3075 19.9279 70.569 20.8432C67.2034 22.5923 65.6245 28.4734 65.07 31.1705Z" fill="#FCD8E0"/>
  <path d="M65.0703 31.1706L67.3029 34.3278L79.241 42.9038L88.5083 48.3936L89.7065 45.5859L89.9533 45.0053C89.9533 45.0053 89.7817 44.8812 89.4761 44.6408C88.0007 43.4703 83.3922 39.5651 79.7565 33.6918L80.5357 35.8748C80.1726 35.1998 75.1047 25.7043 70.5693 20.8434C67.2037 22.5925 65.6247 28.4736 65.0703 31.1706Z" fill="#D81647"/>
  <path d="M92.4729 47.2207C92.4729 47.2207 79.8974 40.169 72.3899 25.339C67.5985 15.8739 58.836 19.2076 58.2411 26.4882C57.7278 32.7699 54.0566 36.7424 54.0566 36.7424C54.0566 36.7424 55.615 36.0101 57.0557 36.4262C62.0421 37.8669 61.4692 45.0292 86.6201 51.6704C88.7103 52.2227 90.9103 50.643 92.4729 47.2207Z" fill="white"/>
  <path d="M69.2283 57.7462C69.234 57.7519 69.2333 57.7561 69.2333 57.7561L69.2326 57.7597C69.9196 58.5707 71.1745 59.2181 73.9829 59.6349C80.6942 60.6297 84.8816 53.9041 85.6976 52.4556C76.9529 55.8688 65.5706 53.2341 69.2283 57.7462Z" fill="#EA7E8C"/>
  <path d="M90.0838 47.408L74.4873 33.2493L84.2949 44.2345L69.2266 35.5437L83.2066 46.2084L70.0958 41.1419L88.3844 50.9487L90.0838 47.408Z" fill="#FCD8E0"/>
  <path d="M101.395 69.5318C101.388 69.5325 101.386 69.5361 101.386 69.5361L101.383 69.5396C100.335 69.7147 98.9586 69.3971 96.5459 67.9018C90.7804 64.3249 91.9289 56.4863 92.2423 54.8535C96.7118 63.1076 107.103 68.4506 101.395 69.5318Z" fill="#EA7E8C"/>
  <path d="M92.1545 48.1666L113.206 47.4363L98.6234 49.4846L115.739 52.5865L98.1782 51.6953L111.46 56.2974L91.1641 51.9668L92.1545 48.1666Z" fill="#FCD8E0"/>
  <path d="M95.1668 46.9941C95.3192 41.8312 92.3166 41.3938 92.3166 41.3938C92.3166 41.3938 89.7423 39.7879 86.5227 43.8271C83.3032 47.8662 77.4915 52.0734 87.214 55.3192C96.733 59.123 95.0144 52.1571 95.1668 46.9941Z" fill="white"/>
  <path d="M88.8702 82.9444C88.9971 83.3918 89.1198 83.8462 89.2261 84.2915C90.4988 89.5388 90.4739 94.8832 89.5629 100.144C86.5511 117.588 73.8033 134.047 66.3496 142.424C63.3087 145.846 61.1506 147.916 60.8882 148.164C60.8762 148.168 60.867 148.183 60.867 148.183C60.867 148.183 57.015 147.414 51.2735 145.643C39.9086 142.129 21.1164 134.696 10.0801 121.525C6.69021 117.474 4.03367 112.89 2.54726 107.708L2.52265 107.616C-2.57411 89.7224 3.99715 78.6032 14.4781 74.1032C19.5513 71.9408 25.5226 71.3296 31.5302 72.2513C34.2812 72.6774 37.038 73.419 39.7167 74.4839C41.6298 71.894 43.8305 69.5883 46.2311 67.6372C49.462 64.9954 53.051 63.0017 56.7413 61.7986C66.01 58.7712 75.9891 60.7599 82.9004 70.1832C83.6392 71.1907 84.3404 72.2804 84.9991 73.4538C86.5213 76.1487 87.8251 79.3044 88.8702 82.9444Z" fill="#EE2368"/>
  <path d="M48.5584 76.2835C48.5584 76.2835 52.0516 80.7686 54.2467 79.3676C56.441 77.9659 66.5854 65.5571 74.9912 69.1737C83.3964 72.7895 90.1311 90.2018 90.1311 90.2018L64.8292 96.2793L48.25 91.232L48.5584 76.2835Z" fill="#D81647"/>
  <path d="M10.2832 95.232C10.2832 95.232 14.1356 85.4961 21.546 86.9821C28.9562 88.4689 40.1422 90.1563 40.1422 90.1563L43.7145 100.126L21.1929 107.569L10.2832 95.232Z" fill="#D81647"/>
  <path d="M88.8686 82.946C97.4964 113.025 61.9912 147.104 60.8895 148.165C61.7473 146.784 84.7103 110.101 79.9678 87.1255C76.9043 72.3124 71.618 65.2444 56.7383 61.7952C69.2592 57.7114 83.0789 62.763 88.8686 82.946Z" fill="#D81647"/>
  <path d="M32.2159 72.8715L51.6856 145.246C54.429 146.086 56.7227 146.693 58.3438 147.091C59.18 147.297 59.8371 147.448 60.2844 147.547C60.4609 147.586 60.6047 147.617 60.7139 147.64C61.307 147.067 63.2174 145.185 65.7976 142.293L45.9519 68.5201C43.8154 70.3355 41.849 72.4401 40.1199 74.781L39.891 75.0909L39.533 74.9486C37.1366 73.9959 34.6769 73.3054 32.2159 72.8715Z" fill="white" stroke="#D81647"/>
  <path d="M51.9581 88.9277L59.616 117.393C58.2136 116.371 55.3613 114.733 52.0099 115.161C48.3416 115.636 45.5049 118.664 44.3875 120.047L38.2812 97.3477L38.7374 97.4271C42.7341 98.0993 47.0413 96.4232 49.3164 93.2915C50.2686 91.9792 51.2137 90.4946 51.9581 88.9277Z" fill="#FEECF1"/>
  <path d="M89.2269 84.2917C90.4995 89.5389 90.4747 94.8834 89.5637 100.144L10.0808 121.525C6.69099 117.474 4.03445 112.89 2.54804 107.708L2.52344 107.616L89.2269 84.2917Z" fill="#FCD8E0"/>
  <path d="M74.4899 105.516C74.0723 106.584 73.0733 107.795 71.3079 108.949C68.7804 110.604 69.0207 112.378 67.7949 113.604C67.7892 113.606 67.7906 113.612 67.7906 113.612L67.792 113.618C67.0306 114.363 65.7246 114.899 62.89 115.068C56.117 115.467 52.5408 108.395 51.8559 106.879C51.7744 106.697 52.0729 104.402 52.0729 104.402C52.0729 104.402 53.2739 104.237 55.1102 104.007C60.6921 103.296 72.1474 101.928 73.5363 102.51C74.5892 102.945 75.0472 104.107 74.4899 105.516Z" fill="#FCD8E0"/>
  <path d="M74.4923 105.516C68.7062 106.348 58.5513 106.62 58.5513 106.62L62.1274 108.671L52.2773 106.206L55.1126 104.006C60.6945 103.296 72.1498 101.928 73.5387 102.51C74.5916 102.945 75.0496 104.107 74.4923 105.516Z" fill="#FAB8C4"/>
  <path d="M51.0091 106.017C51.0091 106.017 82.3155 106.146 84.9764 99.776C87.6365 93.405 81.8511 92.2806 81.8511 92.2806L71.2963 92.4748L61.8191 96.2325L49.8789 104.126L51.0091 106.017Z" fill="#EA7E8C"/>
  <path d="M74.2847 87.5007C74.3875 88.3494 74.4144 88.8897 74.4144 88.8897L71.7819 90.448L59.1334 97.9365L49.4173 102.586L48.7162 102.92L47.9355 101.462C47.9355 101.462 48.1071 100.803 48.4715 99.6834C48.5623 99.409 48.6637 99.0985 48.7842 98.7623C50.4837 93.8108 54.8766 83.2645 62.8266 77.7577C65.8363 75.6697 68.0689 75.6626 69.7195 76.7275C72.917 78.7673 73.9706 84.7647 74.2847 87.5007Z" fill="#FCD8E0"/>
  <path d="M74.2847 87.5003L71.782 90.4476L59.1335 97.936L49.4174 102.585L48.4716 99.683L48.2773 99.0839C48.2773 99.0839 48.4588 98.9745 48.7843 98.7618C50.3575 97.7261 55.2929 94.2435 59.4334 88.7148L58.4642 90.8198C58.8854 90.1796 64.7721 81.1689 69.7195 76.7271C72.9171 78.7669 73.9707 84.7643 74.2847 87.5003Z" fill="#FAB8C4"/>
  <path d="M45.5742 101.067C45.5742 101.067 58.7233 95.1548 67.5113 81.0451C73.1194 72.0401 81.5537 76.1346 81.5033 83.4394C81.4601 89.7424 84.7654 94.0226 84.7654 94.0226C84.7654 94.0226 83.2779 93.1555 81.8061 93.4426C76.7126 94.438 76.6502 101.624 51.0115 106.017C48.8803 106.382 46.8284 104.614 45.5742 101.067Z" fill="white"/>
  <path d="M24.866 118.866C25.7637 119.58 27.2351 120.126 29.3413 120.238C32.3576 120.403 33.0402 122.058 34.7155 122.504C34.7214 122.502 34.7233 122.508 34.7233 122.508L34.725 122.513C35.7578 122.777 37.1563 122.585 39.6932 121.309C45.7525 118.256 45.298 110.344 45.1293 108.689C45.1087 108.49 43.6992 106.655 43.6992 106.655C43.6992 106.655 42.5776 107.116 40.8733 107.837C35.6879 110.023 25.0926 114.587 24.1831 115.787C23.4904 116.692 23.6777 117.927 24.866 118.866Z" fill="#FCD8E0"/>
  <path d="M24.866 118.866C30.2893 116.682 39.2105 111.823 39.2105 111.823L37.1456 115.392L44.4295 108.317L40.8733 107.837C35.6879 110.023 25.0926 114.587 24.1831 115.787C23.4904 116.692 23.6777 117.927 24.866 118.866Z" fill="#FAB8C4"/>
  <path d="M45.4298 107.518C45.4298 107.518 18.4128 123.337 12.9153 119.161C7.41785 114.984 11.8577 111.109 11.8577 111.109L21.0857 105.982L31.1692 104.478L45.4574 105.316L45.4298 107.518Z" fill="#EA7E8C"/>
  <path d="M16.0058 103.178C16.3426 103.964 16.5904 104.444 16.5904 104.444L19.649 104.472L34.3482 104.604L45.0854 103.752L45.8596 103.689L45.8036 102.036C45.8036 102.036 45.3244 101.552 44.4473 100.767C44.2311 100.574 43.9879 100.356 43.7149 100.126C39.7604 96.6954 30.6695 89.7763 21.0302 89.0014C17.3786 88.705 15.4438 89.8189 14.5501 91.5687C12.8069 94.9371 14.9049 100.653 16.0058 103.178Z" fill="#FCD8E0"/>
  <path d="M16.0058 103.178L19.649 104.472L34.3482 104.604L45.0854 103.752L44.4473 100.767L44.3147 100.15C44.3147 100.15 44.1028 100.148 43.7149 100.126C41.8347 100.02 35.8181 99.4824 29.462 96.7777L31.3566 98.1127C30.6712 97.7696 21.0582 92.9285 14.5501 91.5687C12.8069 94.9371 14.9049 100.653 16.0058 103.178Z" fill="#FAB8C4"/>
  <path d="M47.649 100.508C47.649 100.508 33.3075 101.991 18.6271 94.1948C9.25781 89.2183 4.01655 96.9918 7.7246 103.285C10.9242 108.716 10.2122 114.077 10.2122 114.077C10.2122 114.077 11.0644 112.581 12.4815 112.091C17.3872 110.396 21.0454 116.581 45.4292 107.518C47.4555 106.765 48.3431 104.207 47.649 100.508Z" fill="white"/>
  <path d="M34.7156 122.504C34.7234 122.504 34.725 122.509 34.725 122.509L34.7266 122.512C35.7555 122.779 37.1547 122.584 39.6896 121.308C45.7487 118.255 45.2964 110.344 45.129 108.69C39.9478 116.518 29.1261 120.922 34.7156 122.504Z" fill="#EA7E8C"/>
  <path d="M45.8049 102.038L24.9002 99.4506L39.2455 102.779L21.9219 104.358L39.4931 105.021L25.8577 108.432L46.4558 105.911L45.8049 102.038Z" fill="#FCD8E0"/>
  <path d="M67.7969 113.604C67.7905 113.609 67.7912 113.613 67.7912 113.613V113.617C67.0354 114.364 65.7281 114.898 62.8942 115.066C56.1212 115.464 52.5436 108.394 51.8594 106.88C60.2681 111.051 71.8389 109.432 67.7969 113.604Z" fill="#EA7E8C"/>
  <path d="M47.9355 101.465L64.7203 88.739L53.9819 98.816L69.7584 91.4892L54.8915 100.878L68.3986 96.9882L49.3153 105.142L47.9355 101.465Z" fill="#FCD8E0"/>
  <path d="M49.722 98.7709C46.8719 94.4631 44.1663 95.8357 44.1663 95.8357C44.1663 95.8357 41.1371 96.0058 40.8325 101.162C40.5281 106.319 38.2011 113.106 48.019 110.158C57.9903 107.783 52.5729 103.079 49.722 98.7709Z" fill="white"/>
  <path d="M13.4234 80.0919C14.8126 81.1915 14.2465 84.2218 12.1588 86.8593C10.0709 89.4974 7.2518 90.7453 5.86259 89.6449C4.47317 88.5452 5.03952 85.5157 7.12716 82.8775C9.21508 80.2394 12.0336 78.9922 13.4234 80.0919Z" fill="#FAB8DA"/>
  <path d="M36.5983 47.7093C36.5983 47.7093 31.429 50.6623 33.2691 58.1592C33.2691 58.1592 38.3331 55.2757 36.5983 47.7093Z" fill="#F9ABD6"/>
  <path d="M107.179 97.3611C107.179 97.3611 102.009 100.314 103.849 107.811C103.849 107.811 108.913 104.928 107.179 97.3611Z" fill="#F9ABD6"/>
  <path d="M103.453 8.5415C103.453 8.5415 103.144 2.59657 95.6211 0.86378C95.6211 0.86378 95.9153 6.68393 103.453 8.5415Z" fill="#F9ABD6"/>
  <path d="M19.3187 55.0717C19.3187 55.0717 15.5129 50.493 8.44922 53.6069C8.44922 53.6069 12.1673 58.0934 19.3187 55.0717Z" fill="#F9ABD6"/>
  <defs>
    <linearGradient id="paint0_linear_4102_9336" x1="44.847" y1="93.8018" x2="157.452" y2="76.2952" gradientUnits="userSpaceOnUse">
      <stop stop-color="#FF2E00"/>
      <stop offset="1" stop-color="#FFBA08"/>
    </linearGradient>
  </defs>
</svg>