<svg width="24" height="25" viewBox="0 0 24 25" fill="none" xmlns="http://www.w3.org/2000/svg">
  <path d="M12.002 9.81763C11.2063 9.81763 10.4432 10.1337 9.88063 10.6963C9.31802 11.2589 9.00195 12.022 9.00195 12.8176C9.00195 13.6133 9.31802 14.3763 9.88063 14.9389C10.4432 15.5016 11.2063 15.8176 12.002 15.8176C12.7976 15.8176 13.5607 15.5016 14.1233 14.9389C14.6859 14.3763 15.002 13.6133 15.002 12.8176C15.002 12.022 14.6859 11.2589 14.1233 10.6963C13.5607 10.1337 12.7976 9.81763 12.002 9.81763ZM12.002 7.81763C13.328 7.81763 14.5998 8.34441 15.5375 9.28209C16.4752 10.2198 17.002 11.4915 17.002 12.8176C17.002 14.1437 16.4752 15.4155 15.5375 16.3532C14.5998 17.2908 13.328 17.8176 12.002 17.8176C10.6759 17.8176 9.4041 17.2908 8.46642 16.3532C7.52874 15.4155 7.00195 14.1437 7.00195 12.8176C7.00195 11.4915 7.52874 10.2198 8.46642 9.28209C9.4041 8.34441 10.6759 7.81763 12.002 7.81763ZM18.502 7.56763C18.502 7.89915 18.3703 8.21709 18.1358 8.45151C17.9014 8.68593 17.5835 8.81763 17.252 8.81763C16.9204 8.81763 16.6025 8.68593 16.3681 8.45151C16.1336 8.21709 16.002 7.89915 16.002 7.56763C16.002 7.23611 16.1336 6.91816 16.3681 6.68374C16.6025 6.44932 16.9204 6.31763 17.252 6.31763C17.5835 6.31763 17.9014 6.44932 18.1358 6.68374C18.3703 6.91816 18.502 7.23611 18.502 7.56763ZM12.002 4.81763C9.52795 4.81763 9.12395 4.82463 7.97295 4.87563C7.18895 4.91263 6.66295 5.01763 6.17495 5.20763C5.76657 5.35756 5.39737 5.59789 5.09495 5.91063C4.78196 6.21303 4.54131 6.58221 4.39095 6.99063C4.20095 7.48063 4.09595 8.00563 4.05995 8.78863C4.00795 9.89263 4.00095 10.2786 4.00095 12.8176C4.00095 15.2926 4.00795 15.6956 4.05895 16.8466C4.09595 17.6296 4.20095 18.1566 4.38995 18.6436C4.55995 19.0786 4.75995 19.3916 5.09195 19.7236C5.42895 20.0596 5.74195 20.2606 6.17195 20.4266C6.66595 20.6176 7.19195 20.7236 7.97195 20.7596C9.07595 20.8116 9.46195 20.8176 12.001 20.8176C14.476 20.8176 14.879 20.8106 16.03 20.7596C16.812 20.7226 17.338 20.6176 17.827 20.4286C18.235 20.278 18.604 20.0377 18.907 19.7256C19.244 19.3896 19.445 19.0766 19.611 18.6456C19.801 18.1536 19.907 17.6276 19.943 16.8456C19.995 15.7426 20.001 15.3556 20.001 12.8176C20.001 10.3436 19.994 9.93963 19.943 8.78863C19.906 8.00663 19.8 7.47863 19.611 6.99063C19.4602 6.58264 19.22 6.21361 18.908 5.91063C18.6057 5.59747 18.2365 5.35679 17.828 5.20663C17.338 5.01663 16.812 4.91163 16.03 4.87563C14.927 4.82363 14.542 4.81763 12.002 4.81763ZM12.002 2.81763C14.719 2.81763 15.058 2.82763 16.125 2.87763C17.189 2.92763 17.915 3.09463 18.552 3.34263C19.212 3.59663 19.768 3.94063 20.324 4.49563C20.8324 4.99552 21.2259 5.60022 21.477 6.26763C21.724 6.90463 21.892 7.63063 21.942 8.69563C21.989 9.76163 22.002 10.1006 22.002 12.8176C22.002 15.5346 21.992 15.8736 21.942 16.9396C21.892 18.0046 21.724 18.7296 21.477 19.3676C21.2266 20.0354 20.833 20.6402 20.324 21.1396C19.8239 21.6479 19.2193 22.0414 18.552 22.2926C17.915 22.5396 17.189 22.7076 16.125 22.7576C15.058 22.8046 14.719 22.8176 12.002 22.8176C9.28495 22.8176 8.94595 22.8076 7.87895 22.7576C6.81495 22.7076 6.08995 22.5396 5.45195 22.2926C4.78428 22.0421 4.17948 21.6486 3.67995 21.1396C3.17138 20.6398 2.77791 20.0351 2.52695 19.3676C2.27895 18.7306 2.11195 18.0046 2.06195 16.9396C2.01395 15.8736 2.00195 15.5346 2.00195 12.8176C2.00195 10.1006 2.01195 9.76163 2.06195 8.69563C2.11195 7.62963 2.27895 6.90563 2.52695 6.26763C2.77719 5.59981 3.17076 4.99495 3.67995 4.49563C4.17962 3.98686 4.78438 3.59336 5.45195 3.34263C6.08895 3.09463 6.81395 2.92763 7.87895 2.87763C8.94595 2.83063 9.28495 2.81763 12.002 2.81763Z" fill="#0B0014"/>
</svg>