<svg width="24" height="25" viewBox="0 0 24 25" fill="none" xmlns="http://www.w3.org/2000/svg">
  <path d="M12.002 9.95264C11.2063 9.95264 10.4432 10.2687 9.88063 10.8313C9.31802 11.3939 9.00195 12.157 9.00195 12.9526C9.00195 13.7483 9.31802 14.5113 9.88063 15.074C10.4432 15.6366 11.2063 15.9526 12.002 15.9526C12.7976 15.9526 13.5607 15.6366 14.1233 15.074C14.6859 14.5113 15.002 13.7483 15.002 12.9526C15.002 12.157 14.6859 11.3939 14.1233 10.8313C13.5607 10.2687 12.7976 9.95264 12.002 9.95264ZM12.002 7.95264C13.328 7.95264 14.5998 8.47942 15.5375 9.4171C16.4752 10.3548 17.002 11.6266 17.002 12.9526C17.002 14.2787 16.4752 15.5505 15.5375 16.4882C14.5998 17.4259 13.328 17.9526 12.002 17.9526C10.6759 17.9526 9.4041 17.4259 8.46642 16.4882C7.52874 15.5505 7.00195 14.2787 7.00195 12.9526C7.00195 11.6266 7.52874 10.3548 8.46642 9.4171C9.4041 8.47942 10.6759 7.95264 12.002 7.95264ZM18.502 7.70264C18.502 8.03416 18.3703 8.3521 18.1358 8.58652C17.9014 8.82094 17.5835 8.95264 17.252 8.95264C16.9204 8.95264 16.6025 8.82094 16.3681 8.58652C16.1336 8.3521 16.002 8.03416 16.002 7.70264C16.002 7.37112 16.1336 7.05317 16.3681 6.81875C16.6025 6.58433 16.9204 6.45264 17.252 6.45264C17.5835 6.45264 17.9014 6.58433 18.1358 6.81875C18.3703 7.05317 18.502 7.37112 18.502 7.70264ZM12.002 4.95264C9.52795 4.95264 9.12395 4.95964 7.97295 5.01064C7.18895 5.04764 6.66295 5.15264 6.17495 5.34264C5.76657 5.49257 5.39737 5.7329 5.09495 6.04564C4.78196 6.34804 4.54131 6.71722 4.39095 7.12564C4.20095 7.61564 4.09595 8.14064 4.05995 8.92364C4.00795 10.0276 4.00095 10.4136 4.00095 12.9526C4.00095 15.4276 4.00795 15.8306 4.05895 16.9816C4.09595 17.7646 4.20095 18.2916 4.38995 18.7786C4.55995 19.2136 4.75995 19.5266 5.09195 19.8586C5.42895 20.1946 5.74195 20.3956 6.17195 20.5616C6.66595 20.7526 7.19195 20.8586 7.97195 20.8946C9.07595 20.9466 9.46195 20.9526 12.001 20.9526C14.476 20.9526 14.879 20.9456 16.03 20.8946C16.812 20.8576 17.338 20.7526 17.827 20.5636C18.235 20.413 18.604 20.1727 18.907 19.8606C19.244 19.5246 19.445 19.2116 19.611 18.7806C19.801 18.2886 19.907 17.7626 19.943 16.9806C19.995 15.8776 20.001 15.4906 20.001 12.9526C20.001 10.4786 19.994 10.0746 19.943 8.92364C19.906 8.14164 19.8 7.61364 19.611 7.12564C19.4602 6.71765 19.22 6.34862 18.908 6.04564C18.6057 5.73248 18.2365 5.4918 17.828 5.34164C17.338 5.15164 16.812 5.04664 16.03 5.01064C14.927 4.95864 14.542 4.95264 12.002 4.95264ZM12.002 2.95264C14.719 2.95264 15.058 2.96264 16.125 3.01264C17.189 3.06264 17.915 3.22964 18.552 3.47764C19.212 3.73164 19.768 4.07564 20.324 4.63064C20.8324 5.13053 21.2259 5.73523 21.477 6.40264C21.724 7.03964 21.892 7.76564 21.942 8.83064C21.989 9.89664 22.002 10.2356 22.002 12.9526C22.002 15.6696 21.992 16.0086 21.942 17.0746C21.892 18.1396 21.724 18.8646 21.477 19.5026C21.2266 20.1704 20.833 20.7752 20.324 21.2746C19.8239 21.783 19.2193 22.1764 18.552 22.4276C17.915 22.6746 17.189 22.8426 16.125 22.8926C15.058 22.9396 14.719 22.9526 12.002 22.9526C9.28495 22.9526 8.94595 22.9426 7.87895 22.8926C6.81495 22.8426 6.08995 22.6746 5.45195 22.4276C4.78428 22.1771 4.17948 21.7836 3.67995 21.2746C3.17138 20.7748 2.77791 20.1701 2.52695 19.5026C2.27895 18.8656 2.11195 18.1396 2.06195 17.0746C2.01395 16.0086 2.00195 15.6696 2.00195 12.9526C2.00195 10.2356 2.01195 9.89664 2.06195 8.83064C2.11195 7.76464 2.27895 7.04064 2.52695 6.40264C2.77719 5.73482 3.17076 5.12996 3.67995 4.63064C4.17962 4.12187 4.78438 3.72837 5.45195 3.47764C6.08895 3.22964 6.81395 3.06264 7.87895 3.01264C8.94595 2.96564 9.28495 2.95264 12.002 2.95264Z" fill="white"/>
</svg>