<svg width="24" height="25" viewBox="0 0 24 25" fill="none" xmlns="http://www.w3.org/2000/svg">
  <path d="M6.93945 5.81765C6.93919 6.34808 6.72822 6.85669 6.35296 7.23157C5.9777 7.60646 5.46889 7.81692 4.93845 7.81665C4.40802 7.81639 3.89942 7.60542 3.52453 7.23016C3.14965 6.8549 2.93919 6.34608 2.93945 5.81565C2.93972 5.28522 3.15069 4.77662 3.52595 4.40173C3.90121 4.02684 4.41002 3.81639 4.94045 3.81665C5.47089 3.81692 5.97949 4.02788 6.35437 4.40314C6.72926 4.7784 6.93972 5.28722 6.93945 5.81765ZM6.99945 9.29765H2.99945V21.8176H6.99945V9.29765ZM13.3195 9.29765H9.33945V21.8176H13.2795V15.2477C13.2795 11.5877 18.0495 11.2477 18.0495 15.2477V21.8176H21.9995V13.8877C21.9995 7.71765 14.9395 7.94765 13.2795 10.9777L13.3195 9.29765Z" fill="#0B0014"/>
</svg>